<?xml version="1.0" encoding="UTF-8" standalone="no"?>
<!-- Created with Inkscape (http://www.inkscape.org/) -->

<svg
   version="1.1"
   id="svg1"
   width="1200"
   height="1200"
   viewBox="0 0 1200 1200"
   xmlns="http://www.w3.org/2000/svg"
   xmlns:svg="http://www.w3.org/2000/svg">
  <defs
     id="defs1" />
  <g
     id="layer1"
     transform="translate(-280.589,268.02306)">
    <path
       style="display:inline;fill:#d92a1d;stroke:#000000;stroke-width:9.39215;stroke-dasharray:none;stroke-opacity:1"
       d="m 914.40273,271.98682 v -1.87842 c 7.60701,-9.24917 9.61495,-23.27787 15.87821,-33.81168 12.69321,-21.34793 29.55511,-40.07711 46.90704,-57.695 91.55172,-92.954957 210.66872,-158.552032 324.17092,-220.886282 92.0645,-50.560818 321.5228,-176.061988 421.3912,-209.848108 0,0 -127.6461,33.20372 -216.6427,68.65447 -88.9966,35.45074 -120.0473,51.99257 -174.6936,79.31571 -117.0099,58.504925 -228.1242,127.403114 -343.75241,188.306528 29.47101,-27.064189 63.80321,-49.962923 95.79961,-73.960221 55.5976,-41.698031 112.0097,-83.417378 170.9373,-120.314957 40.1378,-25.13257 161.6214,-116.87471 218.6567,-134.3691 -154.8234,60.02917 -154.0982,63.83338 -179.2097,76.46976 -58.7925,29.58489 -115.1023,64.44782 -170.9371,99.226195 -32.5249,20.258975 -65.1255,40.928435 -97.4875,62.1728318 C 993.05862,14.612949 960.93518,36.4323 929.36498,58.991026 897.7948,81.549754 866.77797,104.84785 836.62915,129.0498 c -30.14891,24.20196 -59.42982,49.30774 -87.52804,75.48176 -15.42117,14.36505 -30.94317,29.68498 -43.34151,46.79255 -8.11056,11.19113 -12.57985,25.62431 -22.75136,35.26833 -9.59779,9.10019 -25.65885,11.56351 -37.22063,17.91324 -23.38651,12.84371 -51.00349,30.1967 -71.38024,46.99254 -46.18658,38.06999 -80.01077,95.02558 -113.35206,144.02148 -48.07279,70.64419 -103.42782,142.28647 -136.45703,221.65445 -12.80486,30.76968 -26.66011,72.78655 0.54929,100.63644 14.90589,15.25683 30.63326,17.23464 48.26804,26.65316 29.17077,15.57944 49.50128,29.81222 84.52924,26.42259 23.39379,-2.26387 43.31493,-13.91634 65.74496,-17.84792 21.50831,-3.77014 44.1987,2.29221 65.74498,-1.48861 59.52667,-10.44541 118.81101,-38.83508 174.69378,-61.117 27.60863,-11.00824 55.10139,-22.29251 82.65075,-33.43483 11.86817,-4.80005 26.28049,-13.58341 39.44701,-13.00258 24.61647,1.08579 51.43614,25.63844 71.38025,38.12654 39.03142,24.43973 69.70732,58.25833 107.07022,84.50023 23.0802,16.21038 50.4161,27.02362 77.0156,35.89019 19.1193,6.37305 43.336,15.5196 63.8666,12.96773 10.8202,-1.34485 20.2241,-10.49575 28.1764,-17.20726 23.7515,-20.04485 42.9177,-46.98534 60.9012,-72.1499 23.5315,-32.92797 49.0836,-71.19593 59.4604,-110.8272 5.6366,-21.52826 2.7695,-47.59563 1.8103,-69.50184 -1.7663,-40.33901 -1.7658,-80.08155 -7.3429,-120.21935 -4.5435,-32.70017 -7.0397,-86.23003 -32.5258,-110.40543 -10.466,-9.92755 -29.2997,-12.61696 -42.8561,-16.14641 -27.6829,-7.20742 -55.1574,-15.27546 -82.651,-23.17594 C 1097.2375,349.03788 997.51229,321.35059 914.40273,270.1084 M 987.66139,84.144038 v 1.87842 l -5.63526,1.87843 5.63526,-3.75685"
       id="path3" />
    <path
       d="m 698.38358,382.81406 20.66271,63.86653 h 69.50183 l -51.9322,43.52994 18.12044,65.41885 -58.2312,-37.27288 -54.47441,35.39445 20.66266,-65.74497 -54.47435,-41.32539 h 69.5018 z"
       style="display:inline;fill:#ffff00;fill-opacity:1;stroke:#000000;stroke-width:9.39215;stroke-dasharray:none;stroke-opacity:1"
       id="path1" />
  </g>
</svg>
