<?xml version="1.0" encoding="UTF-8" standalone="no"?>
<!-- Created with Inkscape (http://www.inkscape.org/) -->

<svg
   version="1.1"
   id="svg1"
   width="1200"
   height="1200"
   viewBox="0 0 1200 1200"
   sodipodi:docname="saola-favicon.svg"
   inkscape:version="1.3.2 (091e20e, 2023-11-25)"
   inkscape:export-filename="icon-transparent.svg"
   inkscape:export-xdpi="96"
   inkscape:export-ydpi="96"
   xmlns:inkscape="http://www.inkscape.org/namespaces/inkscape"
   xmlns:sodipodi="http://sodipodi.sourceforge.net/DTD/sodipodi-0.dtd"
   xmlns="http://www.w3.org/2000/svg"
   xmlns:svg="http://www.w3.org/2000/svg">
  <defs
     id="defs1" />
  <sodipodi:namedview
     id="namedview1"
     pagecolor="#505050"
     bordercolor="#ffffff"
     borderopacity="1"
     inkscape:showpageshadow="0"
     inkscape:pageopacity="0"
     inkscape:pagecheckerboard="1"
     inkscape:deskcolor="#505050"
     inkscape:zoom="0.12926214"
     inkscape:cx="88.966495"
     inkscape:cy="1206.8499"
     inkscape:window-width="1424"
     inkscape:window-height="805"
     inkscape:window-x="80"
     inkscape:window-y="168"
     inkscape:window-maximized="0"
     inkscape:current-layer="layer3"
     inkscape:export-bgcolor="#ffffff00" />
  <g
     inkscape:groupmode="layer"
     id="layer3"
     inkscape:label="Background"
     style="display:inline">
    <rect
       style="display:inline;fill:#119da4;fill-opacity:1;stroke:none;stroke-width:26.6667;stroke-dasharray:none;stroke-opacity:1"
       id="rect4"
       width="1200"
       height="1200"
       x="0"
       y="0"
       rx="100"
       ry="100" />
  </g>
  <g
     inkscape:groupmode="layer"
     id="layer1"
     inkscape:label="Layer 1"
     transform="translate(-280.589,268.02306)">
    <path
       d="m 447.71745,-103.46391 c 0,0 42.70742,655.11264 113.4867,852.51616 l 18.25605,42.79995 c 26.8841,-13.73174 135.09124,-51.79653 198.85476,-58.75368 -6.934,-470.31608 -330.59751,-836.56243 -330.59751,-836.56243 z"
       style="display:inline;fill:#ffffff;fill-opacity:1;stroke:#ffffff;stroke-width:33.0936;stroke-opacity:1"
       id="path4"
       sodipodi:nodetypes="ccccc"
       inkscape:label="Left horn" />
    <path
       d="m 1327.3782,-103.46391 c 0,0 -324.5117,367.15314 -330.65806,838.31972 -0.016,1.24698 0.10159,2.42546 0.13809,3.64546 112.76257,17.32873 193.65527,53.35118 193.65527,53.35118 2.6504,-2.80403 5.2689,-5.38309 7.9017,-8.05927 79.9855,-135.86974 128.963,-887.25709 128.963,-887.25709 z"
       style="display:inline;fill:#ffffff;fill-opacity:1;stroke:#ffffff;stroke-width:33.0936;stroke-opacity:1"
       id="path5"
       inkscape:label="Right horn" />
    <path
       d="m 1308.5859,-49.184148 c 0,0 -300.4154,373.145138 -296.1162,782.045038 0.013,1.24701 -0.076,-6.77793 -0.04,-5.55794 30.8046,2.97061 67.4868,10.08906 67.4868,10.08906 0.3919,-0.41464 46.5277,73.13572 228.6691,-786.576158 z"
       style="display:inline;fill:#ffffff;fill-opacity:1;stroke:none;stroke-width:33.0936"
       id="path8"
       inkscape:label="Right horn shading"
       sodipodi:nodetypes="cscccc" />
    <path
       d="m 467.63626,-52.045921 c 0,0 300.41545,373.145131 296.11623,782.045031 -0.0136,1.24702 14.19154,6.93052 14.15493,8.15052 -112.76251,17.32873 -76.3284,0.5614 -76.3284,0.5614 -0.39191,-0.41463 -51.80137,68.95493 -233.94276,-790.756951 z"
       style="display:inline;fill:#ffffff;fill-opacity:1;stroke:none;stroke-width:33.0936"
       id="path9"
       inkscape:label="Left horn shading"
       sodipodi:nodetypes="csccc" />
    <path
       style="display:inline;fill:none;stroke:#ffffff;stroke-width:33.0936;stroke-linecap:round;stroke-dasharray:none;stroke-opacity:1"
       d="m 1439.0422,686.03922 c 0,0 -92.0038,-59.78731 -248.5287,105.81323 0,0 -356.72373,-140.64643 -611.0533,-2.5e-4 0,0 -87.11814,-158.56652 -257.32444,-105.81298"
       id="path2-9-7"
       sodipodi:nodetypes="ccsc"
       inkscape:label="Head" />
    <path
       style="opacity:1;fill:none;fill-opacity:1;stroke:#ffffff;stroke-width:33.0936;stroke-linecap:round;stroke-dasharray:none;stroke-opacity:1"
       d="m 1138.3164,554.27765 c 0,0 -82.1361,2.73281 -110.7565,-63.5862"
       id="path6"
       sodipodi:nodetypes="cc" />
    <path
       style="display:inline;opacity:1;fill:none;fill-opacity:1;stroke:#ffffff;stroke-width:33.0936;stroke-linecap:round;stroke-dasharray:none;stroke-opacity:1"
       d="m 1142.8232,453.53996 c 0,0 -66.3259,-0.53503 -83.0378,-44.8191"
       id="path6-4-5"
       sodipodi:nodetypes="cc" />
    <path
       style="fill:none;fill-opacity:1;stroke:#ffffff;stroke-width:33.0936;stroke-linecap:round;stroke-dasharray:none;stroke-opacity:1"
       d="m 635.06209,554.27765 c 0,0 82.1361,2.73281 110.7564,-63.5862"
       id="path6-7"
       sodipodi:nodetypes="cc"
       inkscape:label="path6-7" />
    <path
       style="fill:none;fill-opacity:1;stroke:#ffffff;stroke-width:33.0936;stroke-linecap:round;stroke-dasharray:none;stroke-opacity:1"
       d="m 630.55525,453.53996 c 0,0 66.32588,-0.53503 83.03781,-44.8191"
       id="path6-4-5-9"
       sodipodi:nodetypes="cc"
       inkscape:label="path6-4-5-9" />
  </g>
</svg>
