<?xml version="1.0" encoding="UTF-8" standalone="no"?>
<!-- Created with Inkscape (http://www.inkscape.org/) -->

<svg
   version="1.1"
   id="svg1"
   width="1200"
   height="1200"
   viewBox="0 0 1200 1200"
   xmlns="http://www.w3.org/2000/svg"
   xmlns:svg="http://www.w3.org/2000/svg">
  <defs
     id="defs1" />
  <g
     id="layer1"
     transform="translate(-280.589,268.02306)">
    <path
       style="display:inline;fill:#d92a1d;stroke:#000000;stroke-width:13.3333;stroke-dasharray:none;stroke-opacity:1"
       d="m 828.02381,273.45476 v -1.33333 c 5.39958,-6.56519 6.82487,-16.52295 11.27059,-24 9.00977,-15.15304 20.9786,-28.44727 33.29525,-40.95268 64.9847,-65.98067 149.53555,-112.54236 230.10095,-156.788057 65.3486,-35.888749 228.2213,-124.971209 299.1092,-148.953063 0,0 -90.6049,23.568455 -153.7759,48.731876 -63.171,25.16342 -85.2112,36.905029 -124,56.299397 -83.0552,41.527588 -161.92555,90.432457 -244.00009,133.662527 20.91887,-19.21053 45.2885,-35.46436 68,-52.49797 39.46384,-29.597827 79.50589,-59.210781 121.33349,-85.40121 28.4904,-17.839437 114.7211,-82.959265 155.2055,-95.37701 -109.8957,42.609513 -109.381,45.30979 -127.2055,54.279272 -41.7316,20.999756 -81.7012,45.745959 -121.33345,70.432129 -23.08651,14.380086 -46.22694,29.051552 -69.19799,44.131112 -22.97105,15.079567 -45.77271,30.567237 -68.18163,46.579727 -22.40892,16.01249 -44.4251,32.5498 -65.82518,49.72866 -21.40007,17.17887 -42.18405,34.99928 -62.12857,53.57796 -10.94612,10.19651 -21.96387,21.0708 -30.7644,33.21399 -5.75696,7.94361 -8.92937,18.18848 -16.14917,25.03394 -6.81267,6.45943 -18.21302,8.20793 -26.41976,12.71505 -16.60006,9.11665 -36.20297,21.43404 -50.66667,33.35595 -32.78385,27.02259 -56.79272,67.45044 -80.45882,102.2284 -34.12272,50.1442 -73.41447,100.99686 -96.85905,157.33333 -9.08907,21.84074 -18.92371,51.66488 0.38989,71.43311 10.58041,10.8295 21.7439,12.23339 34.26131,18.91878 20.70581,11.05851 35.13668,21.16113 60,18.75512 16.60523,-1.60693 30.74553,-9.87801 46.66667,-12.6687 15.26689,-2.6761 31.37284,1.62704 46.66667,-1.05664 42.25284,-7.4143 84.3337,-27.56567 124,-43.38167 19.597,-7.8138 39.11173,-15.82353 58.66666,-23.7325 8.42416,-3.40715 18.65422,-9.64169 28,-9.22941 17.47315,0.77071 36.51009,18.19852 50.66667,27.06274 27.705,17.34766 49.47933,41.35254 76,59.97941 16.38257,11.50635 35.78597,19.18172 54.66667,25.47534 13.57105,4.52368 30.76055,11.01603 45.33335,9.20467 7.6804,-0.95459 14.3553,-7.45003 20.0001,-12.21394 16.859,-14.22811 30.4635,-33.35083 43.2284,-51.21298 16.703,-23.37272 34.8403,-50.53584 42.2058,-78.66666 4.001,-15.28105 1.9659,-33.78402 1.285,-49.33334 -1.2538,-28.63318 -1.2534,-56.84297 -5.212,-85.33333 -3.2251,-23.21102 -4.997,-61.20723 -23.0874,-78.36727 -7.4288,-7.04671 -20.7973,-8.95569 -30.4198,-11.46094 -19.6497,-5.11592 -39.1515,-10.84273 -58.6668,-16.4506 -66.22135,-19.0293 -137.00772,-38.68212 -195.99999,-75.05452 m 52,-132 v 1.33333 l -4,1.33333 4,-2.66666"
       id="path3" />
    <path
       d="m 674.69048,352.12143 14.66667,45.33333 h 49.33333 l -36.86214,30.89815 12.86214,46.43518 -41.33333,-26.45678 -38.66667,25.12345 14.66667,-46.66667 -38.66667,-29.33333 h 49.33333 z"
       style="display:inline;fill:#ffff00;fill-opacity:1;stroke:none;stroke-width:13.3333;stroke-dasharray:none;stroke-opacity:1"
       id="path1" />
  </g>
</svg>
